<svg xmlns="http://www.w3.org/2000/svg" xmlns:xlink="http://www.w3.org/1999/xlink" width="88" height="16" viewBox="0 0 88 16">
  <defs>
    <clipPath id="clip-Custom_Size_1">
      <rect width="88" height="16"/>
    </clipPath>
  </defs>
  <g id="Custom_Size_1" data-name="Custom Size – 1" clip-path="url(#clip-Custom_Size_1)">
    <rect width="88" height="16" fill="rgba(255,255,255,0)"/>
    <path id="Subtraction_7419" data-name="Subtraction 7419" d="M1,16H0L4,0,8,16H7L4,4,1,16Z" transform="translate(20)" fill="#b259c9"/>
    <path id="Subtraction_7420" data-name="Subtraction 7420" d="M1,0H0L4,16,8,0H7L4,12,1,0Z" transform="translate(68 0)" fill="#b259c9"/>
    <g id="Group_353" data-name="Group 353" transform="translate(-171 -142)">
      <rect id="Rectangle_13949" data-name="Rectangle 13949" width="1" height="16" transform="translate(203 142)" fill="#b259c9"/>
      <rect id="Rectangle_13950" data-name="Rectangle 13950" width="8" height="1" transform="translate(203 157)" fill="#b259c9"/>
    </g>
    <g id="g4951" transform="translate(-2808 -122.388)">
      <path id="path4939" d="M2892,122.388v1a2.993,2.993,0,0,1,3,3h1A3.991,3.991,0,0,0,2892,122.388Z" fill="#b259c9"/>
      <path id="path4941" d="M2892,122.388v1a2.993,2.993,0,0,0-3,3h-1A3.991,3.991,0,0,1,2892,122.388Z" fill="#b259c9"/>
      <path id="path4943" d="M2892,130.937v-1.144c-1.374-.687-3-1.743-3-3.4h-1c0,2.408,2.008,3.43,4,4.549Z" transform="translate(0 0.004)" fill="#b259c9"/>
      <path id="path4945" d="M2892,138.375v-1a2.993,2.993,0,0,1-3-3h-1A3.991,3.991,0,0,0,2892,138.375Z" transform="translate(0 0.013)" fill="#b259c9"/>
      <path id="path4947" d="M2892,138.375v-1a2.993,2.993,0,0,0,3-3h1A3.991,3.991,0,0,1,2892,138.375Z" transform="translate(0 0.013)" fill="#b259c9"/>
      <path id="path4949" d="M2892,129.8v1.144c1.374.687,3,1.783,3,3.445h1c0-2.408-2.008-3.47-4-4.589Z" transform="translate(0 0.008)" fill="#b259c9"/>
    </g>
    <g id="Group_354" data-name="Group 354" transform="translate(-173 -142)">
      <rect id="Rectangle_13951" data-name="Rectangle 13951" width="1" height="16" transform="translate(217 142)" fill="#b259c9"/>
      <rect id="Rectangle_13952" data-name="Rectangle 13952" width="7" height="1" transform="translate(218 142)" fill="#b259c9"/>
      <rect id="Rectangle_13953" data-name="Rectangle 13953" width="7" height="1" transform="translate(218 157)" fill="#b259c9"/>
      <rect id="Rectangle_13954" data-name="Rectangle 13954" width="7" height="1" transform="translate(218 150)" fill="#b259c9"/>
    </g>
    <g id="Group_356" data-name="Group 356" transform="translate(-175 -173)">
      <rect id="Rectangle_13951-2" data-name="Rectangle 13951" width="1" height="16" transform="translate(231 173)" fill="#b259c9"/>
      <path id="Subtraction_7418" data-name="Subtraction 7418" d="M-51-42h-.985L-59-57.755V-58h.986L-51-42.246V-42Z" transform="translate(290 231)" fill="#b259c9"/>
      <rect id="Rectangle_13957" data-name="Rectangle 13957" width="1" height="16" transform="translate(238 173)" fill="#b259c9"/>
    </g>
    <g id="g4933" transform="translate(-4872 -248.375)">
      <path id="path4935" d="M4892,256.359l-.862,1H4884v-1Z" transform="translate(-4)" fill="#b259c9"/>
      <path id="path4937" d="M4880,248.375a8,8,0,1,0,8,8h-1a7,7,0,1,1-7-7Z" fill="#b259c9"/>
    </g>
  </g>
</svg>
